<?xml version="1.0" standalone="no"?>
<!DOCTYPE svg PUBLIC "-//W3C//DTD SVG 20010904//EN"
 "http://www.w3.org/TR/2001/REC-SVG-20010904/DTD/svg10.dtd">
<svg version="1.0" xmlns="http://www.w3.org/2000/svg"
 width="281.000000pt" height="281.000000pt" viewBox="0 0 281.000000 281.000000"
 preserveAspectRatio="xMidYMid meet">
<metadata>
Created by potrace 1.11, written by Peter Selinger 2001-2013
</metadata>
<g transform="translate(0.000000,281.000000) scale(0.100000,-0.100000)"
fill="#000000" stroke="none">
<path d="M791 2280 c-56 -13 -113 -42 -176 -89 -33 -25 -62 -48 -65 -51 -3 -3
-27 -22 -55 -42 -65 -46 -133 -77 -180 -80 -36 -2 -63 -25 -69 -60 -1 -7 -8
-30 -15 -51 -19 -55 -10 -61 34 -22 47 41 185 112 235 121 91 16 156 6 206
-32 38 -29 42 -29 49 7 12 62 77 106 150 102 65 -4 101 -26 135 -86 l30 -52 0
35 c0 25 -11 49 -38 85 -21 28 -43 51 -50 51 -25 3 -27 5 -11 14 9 5 27 7 40
5 13 -3 40 -8 59 -11 39 -7 167 -57 218 -86 48 -26 49 -22 6 20 -56 56 -141
117 -210 152 l-59 30 55 1 c54 1 55 1 25 14 -16 7 -46 16 -65 20 -57 10 -212
14 -249 5z m-7 -119 c16 -17 14 -19 -59 -33 -42 -8 -74 -13 -72 -11 23 22 85
63 98 63 9 0 23 -8 33 -19z"/>
<path d="M1824 2280 c-3 -3 -13 -5 -22 -5 -23 -1 -112 -26 -116 -34 -2 -3 21
-5 52 -3 l57 3 -72 -39 c-78 -42 -223 -158 -223 -177 0 -2 44 17 99 41 98 44
113 49 181 60 19 3 42 7 52 10 9 3 19 0 23 -6 3 -5 2 -10 -2 -10 -13 0 -69
-54 -83 -80 -12 -23 -25 -80 -17 -80 2 0 17 20 32 44 56 89 176 105 247 35 9
-9 23 -35 31 -59 12 -36 16 -40 28 -28 98 98 268 75 450 -59 31 -23 59 -40 62
-37 6 6 -39 132 -53 149 -5 6 -28 12 -51 13 -53 4 -137 46 -217 111 -34 28
-65 51 -68 51 -4 0 -14 8 -23 18 -20 21 -84 56 -136 73 -39 12 -221 20 -231 9z
m300 -131 c26 -17 46 -32 46 -35 0 -4 -35 1 -75 10 -80 18 -78 17 -59 37 23
26 35 24 88 -12z"/>
<path d="M1230 2152 c19 -14 58 -50 85 -78 78 -80 123 -81 189 -6 33 38 58 62
91 86 11 8 17 17 14 20 -10 10 -61 -20 -117 -68 -74 -63 -84 -63 -157 -2 -55
47 -85 65 -118 72 -18 3 -15 -2 13 -24z"/>
<path d="M1108 2030 c58 -84 50 -140 -35 -249 -7 -9 -26 -34 -42 -56 -17 -22
-34 -44 -39 -50 -37 -46 -47 -141 -24 -220 21 -71 30 -73 29 -4 -1 70 6 118
20 144 7 12 10 3 11 -33 2 -95 79 -207 159 -232 21 -7 41 -15 46 -17 4 -2 -19
-24 -52 -48 -32 -25 -78 -69 -102 -98 l-44 -53 -35 15 c-31 13 -38 22 -52 71
-9 30 -27 71 -40 90 -22 32 -140 120 -162 120 -5 0 -17 6 -25 14 -16 13 -48
32 -181 104 -183 100 -303 152 -331 145 -40 -11 -159 -240 -159 -306 0 -34 3
-37 62 -65 250 -118 319 -148 463 -203 167 -63 184 -66 278 -40 66 19 82 20
116 10 l40 -12 -16 -39 c-23 -58 -19 -190 6 -223 5 -5 12 -20 15 -31 5 -18 1
-24 -23 -32 -27 -10 -32 -8 -50 16 -19 27 -19 27 -55 10 l-36 -18 46 -90 c44
-84 48 -89 73 -84 40 10 47 20 34 54 -10 27 -9 32 12 46 35 23 56 20 107 -15
26 -18 57 -33 68 -34 11 -1 20 -5 20 -9 0 -3 9 -6 20 -5 26 2 25 4 -9 21 -16
9 -45 32 -66 52 l-38 36 139 69 c76 38 144 69 151 69 9 0 277 -125 292 -136 4
-3 -66 -70 -101 -97 l-23 -17 30 6 c31 7 111 49 132 70 15 14 39 9 71 -15 21
-15 22 -20 11 -44 -14 -31 -7 -42 33 -52 26 -7 29 -3 73 84 l46 92 -36 15
c-34 14 -36 14 -58 -12 -20 -23 -25 -25 -50 -13 -29 13 -32 19 -18 34 29 33
43 183 22 238 -16 41 -14 46 22 63 31 15 38 15 104 -5 38 -12 83 -21 99 -21
36 0 249 74 361 126 30 13 56 24 58 24 3 0 70 31 150 70 135 65 145 71 145 97
0 43 -24 111 -65 188 -57 105 -74 125 -108 125 -42 0 -279 -118 -526 -262 -25
-15 -62 -36 -81 -46 -51 -29 -71 -55 -106 -141 -26 -62 -38 -79 -65 -93 -33
-16 -34 -16 -49 5 -18 26 -128 137 -136 137 -3 0 -17 8 -30 19 l-23 18 42 17
c85 32 138 96 164 196 5 19 8 45 7 58 -3 42 15 22 22 -25 11 -71 11 -83 3
-126 -5 -32 -4 -37 6 -25 18 18 45 102 45 137 0 62 -33 126 -129 250 -27 35
-55 84 -61 108 -12 40 -11 47 18 103 16 33 28 60 27 60 -2 0 -25 -21 -50 -46
-63 -62 -77 -99 -68 -177 20 -179 1 -248 -93 -339 -75 -73 -92 -82 -118 -70
-49 22 -139 117 -167 175 -25 54 -27 66 -22 145 12 203 8 215 -106 307 -22 18
-21 15 7 -25z m69 -319 c-6 -24 10 -128 25 -161 34 -76 47 -98 91 -145 41 -46
45 -54 30 -61 -26 -11 -42 -6 -83 28 -53 42 -96 105 -107 158 -10 48 2 136 25
178 15 27 26 29 19 3z m503 -51 c32 -95 5 -194 -72 -266 -55 -50 -87 -65 -111
-52 -19 10 -18 12 13 41 74 70 131 193 133 292 2 63 12 59 37 -15z m-191 -413
c88 -61 200 -159 201 -177 0 -6 -49 -31 -181 -93 l-95 -45 -75 35 c-144 68
-200 96 -204 104 -8 13 151 159 173 159 6 0 12 3 14 8 2 4 19 18 38 30 42 27
66 23 129 -21z m-298 -285 c57 -26 115 -52 127 -58 21 -9 11 -15 -102 -67 -69
-31 -130 -57 -135 -57 -13 0 -31 57 -31 99 0 29 28 131 36 131 1 0 49 -22 105
-48z m563 -2 c19 -54 18 -152 -3 -173 -12 -12 -37 -3 -170 61 l-93 44 83 39
c46 22 100 48 119 59 19 11 37 20 41 20 3 0 13 -23 23 -50z"/>
<path d="M843 2040 c-32 -13 -64 -69 -60 -105 4 -40 45 -64 78 -47 22 11 22
12 3 9 -34 -7 -51 9 -50 45 1 27 7 36 35 50 40 20 72 9 92 -31 20 -41 18 -68
-7 -94 -36 -39 -85 -51 -178 -42 -168 16 -190 12 -248 -43 -46 -44 -43 -51 7
-17 49 33 100 33 207 -1 65 -21 95 -25 141 -21 104 9 169 72 169 163 0 103
-97 171 -189 134z"/>
<path d="M1870 2034 c-80 -33 -110 -148 -56 -218 61 -80 146 -95 296 -51 108
32 154 30 205 -10 47 -35 44 -20 -5 26 -33 31 -74 49 -123 53 -5 1 -52 -4
-105 -10 -102 -11 -155 -2 -187 30 -53 53 -20 146 51 146 35 0 64 -28 64 -62
0 -26 -29 -50 -52 -42 -14 4 -18 3 -13 -6 4 -6 22 -10 42 -8 28 3 38 10 48 35
7 17 10 34 7 38 -4 4 -7 10 -7 13 -2 22 -31 56 -60 68 -42 17 -60 17 -105 -2z"/>
<path d="M659 1944 c-19 -23 -87 -55 -120 -56 -23 -1 -27 -4 -18 -14 12 -15
59 -11 124 12 22 7 50 14 62 14 33 0 36 16 7 39 -32 25 -38 26 -55 5z"/>
<path d="M2105 1933 l-25 -28 22 -3 c13 -2 43 -10 68 -17 56 -18 132 -23 137
-10 2 6 -10 11 -25 11 -34 2 -91 27 -120 54 -27 25 -26 25 -57 -7z"/>
</g>
</svg>
